<svg width="167" height="154" viewBox="0 0 167 154" fill="none" xmlns="http://www.w3.org/2000/svg">
<path d="M96.1739 86.8473C94.8156 87.1514 93.4926 87.7149 92.2871 88.5022C89.1464 90.5033 87.3192 93.36 88.2062 94.8823C89.0932 96.4046 92.3583 96.0157 95.499 94.0146C96.7207 93.2551 97.8061 92.2844 98.6882 91.1624C99.0976 90.6203 99.171 89.9448 98.8758 89.4399L97.7235 87.4622C97.4303 86.9556 96.8222 86.7147 96.1739 86.8473Z" fill="#D5D6DB"/>
<path d="M88.2868 59.8541C87.3019 60.0748 86.3425 60.4835 85.4682 61.0545C83.1915 62.5051 81.8658 64.5765 82.5085 65.6794C83.1511 66.7824 85.5195 66.5001 87.7961 65.0496C88.682 64.4986 89.4689 63.7944 90.1086 62.9808C90.4051 62.5878 90.4582 62.0985 90.2442 61.7323L89.4098 60.3004C89.1975 59.9332 88.7569 59.7581 88.2868 59.8541Z" fill="#D5D6DB"/>
<path d="M75.4728 60.9834C75.2536 60.9589 75.0198 61.0173 74.817 61.1468L69.469 64.5546C69.0217 64.8388 68.8427 65.3862 69.0696 65.7774C69.1215 65.867 69.1925 65.9436 69.2788 66.0026L82.4609 75.0896L100.294 63.7262L75.4728 60.9834Z" fill="#029BC5"/>
<path d="M131.85 59.7023L83.3183 90.2531L54.6055 101.677L39.9622 104.586L38.3511 101.849L119.246 51.9043C121.656 50.4095 124.342 49.4921 127.031 49.2453C128.209 49.1435 129.371 49.1828 130.493 49.3617C131.487 49.5126 132.43 49.8034 133.293 50.2257C134.257 50.7041 136.092 50.7594 136.686 51.7124C136.688 51.7109 138.09 56.0861 131.85 59.7023Z" fill="#E1E6E9"/>
<path d="M83.9608 86.2081L62.9668 119.679C62.7046 120.149 62.8603 120.676 63.3142 120.855C63.5927 120.965 63.9337 120.922 64.2201 120.74L69.564 117.35C70.5918 116.698 71.5019 115.869 72.238 114.916L112.953 67.0462L83.9608 86.2081Z" fill="#029BC5"/>
<path d="M30.9815 85.091C30.6312 84.9712 30.2144 85.0333 29.8626 85.2573L25.4453 88.0703C24.8434 88.4533 24.6036 89.1898 24.9095 89.7155C24.9677 89.8154 25.0434 89.9034 25.1342 89.9759L37.5114 99.89L50.5239 91.763L30.9815 85.091Z" fill="#029BC5"/>
<path d="M41.6593 101.676L34.9982 111.006C34.9005 111.14 34.9235 111.308 35.0495 111.382C35.1403 111.435 35.2643 111.425 35.3651 111.358L39.4933 108.742C39.5254 108.721 39.5544 108.696 39.5784 108.667L49.3116 96.832L41.6593 101.676Z" fill="#029BC5"/>
<path d="M129.696 49.7632C128.542 49.5776 127.344 49.5379 126.131 49.6443C124.95 51.2954 124.196 53.1502 123.942 55.0237C123.924 55.4 124.227 55.671 124.62 55.6288C124.742 55.6156 124.864 55.5727 124.973 55.5039L132.581 50.6601C131.691 50.2214 130.72 49.9194 129.696 49.7632Z" fill="#029BC5"/>
<path d="M113.117 58.6707L118.084 55.5342L122.711 63.4038L117.744 66.5402L113.117 58.6707Z" fill="#D5D6DB"/>
<path d="M109.992 61.7834C109.393 62.1624 109.154 62.8912 109.458 63.411L109.95 64.253C110.274 64.7595 111.013 64.8487 111.602 64.452C112.161 64.0743 112.387 63.3877 112.117 62.8806L111.625 62.0385C111.321 61.5192 110.59 61.4049 109.992 61.7834Z" fill="#3A556A"/>
<path d="M105.527 64.5558C104.928 64.9349 104.689 65.6637 104.993 66.1834L105.485 67.0255C105.809 67.532 106.549 67.6211 107.137 67.2245C107.697 66.8468 107.922 66.1601 107.652 65.653L107.16 64.811C106.856 64.2918 106.125 64.1775 105.527 64.5558Z" fill="#3A556A"/>
<path d="M101.061 67.3291C100.463 67.7087 100.225 68.4366 100.529 68.9559L101.021 69.7979C101.345 70.3044 102.084 70.3935 102.672 69.9969C103.232 69.6192 103.458 68.9326 103.188 68.4255L102.695 67.5835C102.392 67.0637 101.66 66.9499 101.061 67.3291Z" fill="#3A556A"/>
<path d="M96.5969 70.1015C95.9991 70.4811 95.7607 71.209 96.0644 71.7284L96.5567 72.5704C96.8806 73.0769 97.6198 73.1661 98.2081 72.7694C98.7679 72.3917 98.9933 71.705 98.7235 71.198L98.2311 70.3559C97.927 69.8363 97.1954 69.7224 96.5969 70.1015Z" fill="#3A556A"/>
<path d="M92.1332 72.8742C91.535 73.2539 91.2965 73.9822 91.6003 74.5017L92.093 75.3441C92.3967 75.8634 93.1279 75.9772 93.7262 75.5983C94.3246 75.2194 94.5634 74.4912 94.2597 73.9719L93.7671 73.1295C93.4642 72.6097 92.7332 72.4951 92.1345 72.8734C92.134 72.8737 92.1337 72.8739 92.1332 72.8742Z" fill="#3A556A"/>
<path d="M87.6688 75.6467C87.0706 76.0264 86.8322 76.7546 87.136 77.2742L87.6286 78.1166C87.9323 78.6359 88.6635 78.7497 89.2619 78.3708C89.8602 77.9918 90.0991 77.2637 89.7954 76.7444L89.3028 75.902C88.9998 75.3822 88.2688 75.2676 87.6701 75.6459C87.6696 75.6462 87.6691 75.6465 87.6688 75.6467Z" fill="#3A556A"/>
<path d="M83.204 78.4191C82.6058 78.7989 82.3673 79.5271 82.6711 80.0466L83.1637 80.889C83.4682 81.4078 84.1998 81.5205 84.7975 81.1411C85.3942 80.7623 85.6325 80.0357 85.3302 79.517L84.8376 78.6746C84.5341 78.1549 83.8028 78.0405 83.204 78.4191Z" fill="#3A556A"/>
<path d="M78.7396 81.1916C78.1414 81.5713 77.9029 82.2995 78.2068 82.8191L78.6994 83.6615C79.0038 84.1803 79.7354 84.293 80.3331 83.9136C80.9298 83.5348 81.1682 82.8081 80.8659 82.2894L80.3733 81.447C80.0697 80.9273 79.3385 80.8129 78.7396 81.1916Z" fill="#3A556A"/>
<path d="M74.2753 83.9641C73.6771 84.3438 73.4386 85.072 73.7424 85.5915L74.235 86.4339C74.5395 86.9527 75.2711 87.0654 75.8688 86.686C76.4654 86.3072 76.7038 85.5806 76.4015 85.0619L75.9089 84.2195C75.6051 83.7 74.8739 83.5856 74.2753 83.9641Z" fill="#3A556A"/>
<path d="M69.8095 86.7372C69.2111 87.1162 68.9723 87.8443 69.2759 88.3636L69.2766 88.3647L69.7692 89.2071C70.0737 89.726 70.8052 89.8387 71.4029 89.4592C71.9996 89.0804 72.238 88.3538 71.9357 87.8351L71.4431 86.9927C71.1395 86.473 70.4083 86.3586 69.8095 86.7372Z" fill="#3A556A"/>
<path d="M65.3461 89.509C64.7477 89.8879 64.5089 90.616 64.8126 91.1353L64.8132 91.1364L65.3058 91.9788C65.6103 92.4976 66.3419 92.6103 66.9396 92.2309C67.5363 91.8521 67.7747 91.1255 67.4724 90.6068L66.9797 89.7644C66.6759 89.2449 65.9447 89.1305 65.3461 89.509Z" fill="#3A556A"/>
</svg>
